<svg width="351" height="93" viewBox="0 0 351 93" fill="none" xmlns="http://www.w3.org/2000/svg">
<path d="M29.38 92.5002L116.59 68.3602L104.19 44.9102L14.88 68.3602L29.38 92.5002Z" fill="#327AB6"/>
<path d="M104.19 44.9102V21.4502L14.88 44.9102V68.3602L104.19 44.9102Z" fill="#5A91C3"/>
<path d="M104.19 21.45L84.79 -2L0 21.45L14.88 44.91L104.19 21.45Z" fill="#7AA5CD"/>
<path d="M19.48 69.8602L90.94 50.9702L85.93 73.7602L30.95 88.9702L19.48 69.8602Z" fill="#D9D9D9"/>
<path d="M55.76 67.6499L63.33 70.4599" stroke="#938E88" stroke-width="2" stroke-linecap="round" stroke-linejoin="round"/>
<path d="M63.33 67.6499L55.76 70.4599" stroke="#938E88" stroke-width="2" stroke-linecap="round" stroke-linejoin="round"/>
<path d="M90.42 48.52L52.09 26.27C52.09 26.27 49.51 29.86 50.57 32.84C51.63 35.82 53.72 43.47 65.74 38.54L72.17 53.41L90.42 48.52Z" fill="#D9D9D9"/>
<path d="M42.6599 12.9102L55.2099 23.5502L94.7799 47.3802L90.4199 48.5202L59.5499 30.5002L52.0899 26.2702L37.9399 14.2602L42.6599 12.9102Z" fill="#6BBA20"/>
<path d="M79.52 78.62L116.59 68.36L115.2 65.74L105.37 47.15L104.18 44.91V21.45L84.79 -2L0 21.45L1.94 24.51L14.88 44.91V68.36L27.79 89.85L29.38 92.5L32.54 91.62L79.52 78.62ZM83.66 1.24L98.35 20.41L16.54 41.69L4.87 23.69L83.66 1.24ZM18.08 44.07L100 22.55L101 45.74L18.08 67.52V44.07ZM19.48 69.86L102.26 48L112.62 66.47L31 89L19.48 69.86Z" fill="white"/>
<path d="M35.82 62.86L50.82 58.92L44.65 50.24C44.65 50.24 40.19 42.57 39.08 38.54L18.08 44.07V67.52L35.82 62.86Z" fill="#D9D9D9"/>
<path d="M80.61 31.36C80.61 25.7056 78.3637 20.2828 74.3655 16.2845C70.3672 12.2862 64.9444 10.04 59.29 10.04C53.6355 10.04 48.2127 12.2862 44.2144 16.2845C40.2162 20.2828 37.97 25.7056 37.97 31.36C37.97 31.36 36.15 44.6 59.27 68.45C59.27 68.45 81.83 47.23 80.61 31.36ZM59.3 40.24C57.5487 40.242 55.8363 39.7244 54.3794 38.7527C52.9225 37.781 51.7866 36.3989 51.1155 34.7814C50.4445 33.1639 50.2684 31.3836 50.6095 29.6659C50.9507 27.9483 51.7938 26.3704 53.0321 25.1321C54.2704 23.8939 55.8482 23.0508 57.5659 22.7096C59.2835 22.3684 61.0638 22.5446 62.6813 23.2156C64.2989 23.8867 65.6809 25.0226 66.6526 26.4795C67.6243 27.9364 68.1419 29.6488 68.14 31.4C68.14 33.7446 67.2086 35.993 65.5508 37.6509C63.893 39.3087 61.6445 40.24 59.3 40.24V40.24Z" fill="#0E1835"/>
<path d="M90.9401 50.9699L94.9101 49.9199L90.8001 72.4899L85.9301 73.7599L90.9401 50.9699Z" fill="#6BBA20"/>
<path d="M4.87 23.6798L37.94 14.2598L42.66 17.9998C42.66 17.9998 35.71 25.5698 38.42 35.9998L16.54 41.6898L4.87 23.6798Z" fill="#D9D9D9"/>
<path d="M59.53 67.7801C66.9914 67.7801 73.04 65.9534 73.04 63.7001C73.04 61.4468 66.9914 59.6201 59.53 59.6201C52.0687 59.6201 46.02 61.4468 46.02 63.7001C46.02 65.9534 52.0687 67.7801 59.53 67.7801Z" stroke="#0E1835" stroke-width="2" stroke-miterlimit="10"/>
<path d="M37.9399 14.2602L42.6599 12.9102L45.5399 15.0702L42.6599 18.0202L37.9399 14.2602Z" fill="#6BBA20"/>
<path d="M146.08 29.56C145.76 29.1867 145.333 28.8267 144.8 28.48C144.267 28.1333 143.667 27.8267 143 27.56C142.333 27.2667 141.6 27.04 140.8 26.88C140.027 26.6933 139.213 26.6 138.36 26.6C136.173 26.6 134.56 27.0133 133.52 27.84C132.48 28.6667 131.96 29.8 131.96 31.24C131.96 32.2533 132.227 33.0533 132.76 33.64C133.293 34.2267 134.107 34.7067 135.2 35.08C136.32 35.4533 137.733 35.84 139.44 36.24C141.413 36.6667 143.12 37.1867 144.56 37.8C146 38.4133 147.107 39.24 147.88 40.28C148.653 41.2933 149.04 42.6533 149.04 44.36C149.04 45.72 148.773 46.9067 148.24 47.92C147.733 48.9067 147.013 49.7333 146.08 50.4C145.147 51.04 144.053 51.52 142.8 51.84C141.547 52.1333 140.187 52.28 138.72 52.28C137.28 52.28 135.867 52.1333 134.48 51.84C133.12 51.52 131.827 51.0667 130.6 50.48C129.373 49.8933 128.227 49.16 127.16 48.28L128.88 45.24C129.307 45.6933 129.853 46.1467 130.52 46.6C131.213 47.0267 131.987 47.4267 132.84 47.8C133.72 48.1733 134.667 48.48 135.68 48.72C136.693 48.9333 137.733 49.04 138.8 49.04C140.827 49.04 142.4 48.68 143.52 47.96C144.64 47.2133 145.2 46.1333 145.2 44.72C145.2 43.6533 144.88 42.8 144.24 42.16C143.627 41.52 142.707 40.9867 141.48 40.56C140.253 40.1333 138.76 39.7067 137 39.28C135.08 38.8 133.467 38.28 132.16 37.72C130.853 37.1333 129.867 36.3733 129.2 35.44C128.56 34.5067 128.24 33.2933 128.24 31.8C128.24 29.9867 128.68 28.4533 129.56 27.2C130.44 25.9467 131.653 25 133.2 24.36C134.747 23.72 136.493 23.4 138.44 23.4C139.72 23.4 140.907 23.5333 142 23.8C143.12 24.0667 144.16 24.44 145.12 24.92C146.08 25.4 146.96 25.9733 147.76 26.64L146.08 29.56ZM173.055 48.8V52H153.775V23.6H172.695V26.8H157.375V36H170.695V39H157.375V48.8H173.055ZM189.714 52.2C187.447 52.2 185.54 51.8133 183.994 51.04C182.447 50.24 181.207 49.1733 180.274 47.84C179.34 46.48 178.66 44.9467 178.234 43.24C177.807 41.5333 177.594 39.7733 177.594 37.96V23.6H181.194V37.96C181.194 39.3467 181.327 40.7067 181.594 42.04C181.887 43.3467 182.354 44.52 182.994 45.56C183.634 46.6 184.5 47.4267 185.594 48.04C186.687 48.6533 188.047 48.96 189.674 48.96C191.327 48.96 192.7 48.6533 193.794 48.04C194.887 47.4 195.754 46.56 196.394 45.52C197.034 44.4533 197.487 43.2667 197.754 41.96C198.047 40.6533 198.194 39.32 198.194 37.96V23.6H201.794V37.96C201.794 39.88 201.567 41.7067 201.114 43.44C200.687 45.1467 199.994 46.6533 199.034 47.96C198.074 49.2667 196.82 50.3067 195.274 51.08C193.754 51.8267 191.9 52.2 189.714 52.2ZM219.509 52.2C217.669 52.2 215.909 51.88 214.229 51.24C212.576 50.5733 211.109 49.6133 209.829 48.36C208.549 47.08 207.536 45.5467 206.789 43.76C206.069 41.9467 205.709 39.88 205.709 37.56C205.709 35.56 206.082 33.7067 206.829 32C207.576 30.2933 208.602 28.8 209.909 27.52C211.242 26.2133 212.789 25.2 214.549 24.48C216.309 23.76 218.216 23.4 220.269 23.4C222.829 23.4 225.149 23.96 227.229 25.08C229.309 26.1733 230.856 27.68 231.869 29.6L226.069 34.04C225.509 32.92 224.669 32.0267 223.549 31.36C222.429 30.6667 221.242 30.32 219.989 30.32C219.056 30.32 218.202 30.5067 217.429 30.88C216.656 31.2533 215.976 31.7733 215.389 32.44C214.829 33.1067 214.389 33.9067 214.069 34.84C213.776 35.7467 213.629 36.7467 213.629 37.84C213.629 38.96 213.789 39.9733 214.109 40.88C214.429 41.7867 214.869 42.5733 215.429 43.24C216.016 43.88 216.709 44.3867 217.509 44.76C218.309 45.1067 219.202 45.28 220.189 45.28C221.442 45.28 222.642 44.9733 223.789 44.36C224.936 43.72 225.976 42.8267 226.909 41.68V49.28C224.776 51.2267 222.309 52.2 219.509 52.2ZM226.509 42.48H221.269V36.88H232.949V52H226.509V42.48ZM249.199 52.24C246.933 52.24 244.986 51.8667 243.359 51.12C241.733 50.3733 240.399 49.3467 239.359 48.04C238.346 46.7333 237.599 45.24 237.119 43.56C236.639 41.8533 236.399 40.0667 236.399 38.2V23.6H244.199V38.2C244.199 39.1333 244.293 40.0267 244.479 40.88C244.666 41.7333 244.959 42.4933 245.359 43.16C245.759 43.8267 246.266 44.36 246.879 44.76C247.519 45.1333 248.293 45.32 249.199 45.32C250.133 45.32 250.919 45.1333 251.559 44.76C252.199 44.36 252.706 43.8267 253.079 43.16C253.479 42.4667 253.773 41.6933 253.959 40.84C254.146 39.9867 254.239 39.1067 254.239 38.2V23.6H262.039V38.2C262.039 40.1733 261.773 42.0133 261.239 43.72C260.733 45.4267 259.959 46.92 258.919 48.2C257.879 49.48 256.546 50.48 254.919 51.2C253.319 51.8933 251.413 52.24 249.199 52.24ZM266.526 52V23.6H274.326V52H266.526ZM285.781 23.6H294.501L303.541 52H295.621L293.901 46.44H286.341L284.661 52H276.701L285.781 23.6ZM292.661 41.24L290.141 31.24L287.501 41.24H292.661Z" fill="#0E1835"/>
<path d="M129.335 76V65.35H130.385V76H129.335ZM132.218 72.115C132.218 71.375 132.368 70.7 132.668 70.09C132.978 69.47 133.403 68.975 133.943 68.605C134.483 68.235 135.098 68.05 135.788 68.05C136.438 68.05 137.018 68.225 137.528 68.575C138.048 68.915 138.453 69.33 138.743 69.82V65.05H139.763V74.77C139.763 74.91 139.793 75.015 139.853 75.085C139.913 75.145 140.003 75.18 140.123 75.19V76C139.923 76.03 139.768 76.04 139.658 76.03C139.448 76.02 139.263 75.935 139.103 75.775C138.943 75.615 138.863 75.44 138.863 75.25V74.485C138.553 74.995 138.133 75.4 137.603 75.7C137.073 76 136.523 76.15 135.953 76.15C135.413 76.15 134.913 76.04 134.453 75.82C134.003 75.6 133.608 75.3 133.268 74.92C132.938 74.54 132.678 74.11 132.488 73.63C132.308 73.14 132.218 72.635 132.218 72.115ZM138.743 73.315V70.9C138.613 70.54 138.403 70.215 138.113 69.925C137.823 69.625 137.493 69.39 137.123 69.22C136.763 69.04 136.403 68.95 136.043 68.95C135.623 68.95 135.243 69.04 134.903 69.22C134.563 69.39 134.268 69.625 134.018 69.925C133.778 70.225 133.593 70.565 133.463 70.945C133.333 71.325 133.268 71.715 133.268 72.115C133.268 72.535 133.338 72.935 133.478 73.315C133.628 73.695 133.838 74.035 134.108 74.335C134.378 74.625 134.688 74.85 135.038 75.01C135.388 75.17 135.768 75.25 136.178 75.25C136.438 75.25 136.708 75.2 136.988 75.1C137.268 75 137.533 74.865 137.783 74.695C138.043 74.515 138.258 74.305 138.428 74.065C138.598 73.825 138.703 73.575 138.743 73.315ZM145.449 76.15C144.889 76.15 144.369 76.045 143.889 75.835C143.409 75.615 142.994 75.32 142.644 74.95C142.294 74.57 142.019 74.135 141.819 73.645C141.629 73.155 141.534 72.63 141.534 72.07C141.534 71.34 141.699 70.67 142.029 70.06C142.369 69.45 142.834 68.965 143.424 68.605C144.014 68.235 144.684 68.05 145.434 68.05C146.204 68.05 146.874 68.235 147.444 68.605C148.024 68.975 148.479 69.465 148.809 70.075C149.139 70.675 149.304 71.335 149.304 72.055C149.304 72.135 149.304 72.215 149.304 72.295C149.304 72.365 149.299 72.42 149.289 72.46H142.599C142.649 73.02 142.804 73.52 143.064 73.96C143.334 74.39 143.679 74.735 144.099 74.995C144.529 75.245 144.994 75.37 145.494 75.37C146.004 75.37 146.484 75.24 146.934 74.98C147.394 74.72 147.714 74.38 147.894 73.96L148.779 74.2C148.619 74.57 148.374 74.905 148.044 75.205C147.714 75.505 147.324 75.74 146.874 75.91C146.434 76.07 145.959 76.15 145.449 76.15ZM142.569 71.725H148.344C148.304 71.155 148.149 70.655 147.879 70.225C147.619 69.795 147.274 69.46 146.844 69.22C146.424 68.97 145.959 68.845 145.449 68.845C144.939 68.845 144.474 68.97 144.054 69.22C143.634 69.46 143.289 69.8 143.019 70.24C142.759 70.67 142.609 71.165 142.569 71.725ZM150.248 73.75C150.248 73.26 150.388 72.84 150.668 72.49C150.948 72.13 151.333 71.855 151.823 71.665C152.323 71.465 152.898 71.365 153.548 71.365C153.928 71.365 154.323 71.395 154.733 71.455C155.143 71.515 155.508 71.605 155.828 71.725V71.065C155.828 70.405 155.633 69.88 155.243 69.49C154.853 69.1 154.313 68.905 153.623 68.905C153.203 68.905 152.788 68.985 152.378 69.145C151.978 69.295 151.558 69.52 151.118 69.82L150.728 69.1C151.238 68.75 151.738 68.49 152.228 68.32C152.718 68.14 153.218 68.05 153.728 68.05C154.688 68.05 155.448 68.325 156.008 68.875C156.568 69.425 156.848 70.185 156.848 71.155V74.77C156.848 74.91 156.878 75.015 156.938 75.085C156.998 75.145 157.093 75.18 157.223 75.19V76C157.113 76.01 157.018 76.02 156.938 76.03C156.858 76.04 156.798 76.04 156.758 76.03C156.508 76.02 156.318 75.94 156.188 75.79C156.058 75.64 155.988 75.48 155.978 75.31L155.963 74.74C155.613 75.19 155.158 75.54 154.598 75.79C154.038 76.03 153.468 76.15 152.888 76.15C152.388 76.15 151.933 76.045 151.523 75.835C151.123 75.615 150.808 75.325 150.578 74.965C150.358 74.595 150.248 74.19 150.248 73.75ZM155.483 74.35C155.593 74.21 155.678 74.075 155.738 73.945C155.798 73.815 155.828 73.7 155.828 73.6V72.46C155.488 72.33 155.133 72.23 154.763 72.16C154.403 72.09 154.038 72.055 153.668 72.055C152.938 72.055 152.348 72.2 151.898 72.49C151.448 72.78 151.223 73.175 151.223 73.675C151.223 73.965 151.298 74.24 151.448 74.5C151.598 74.75 151.818 74.96 152.108 75.13C152.398 75.29 152.738 75.37 153.128 75.37C153.618 75.37 154.073 75.275 154.493 75.085C154.923 74.895 155.253 74.65 155.483 74.35ZM159.097 65.05H160.117V74.23C160.117 74.62 160.187 74.875 160.327 74.995C160.467 75.115 160.637 75.175 160.837 75.175C161.017 75.175 161.197 75.155 161.377 75.115C161.557 75.075 161.712 75.035 161.842 74.995L162.022 75.82C161.832 75.9 161.597 75.965 161.317 76.015C161.047 76.065 160.812 76.09 160.612 76.09C160.152 76.09 159.782 75.955 159.502 75.685C159.232 75.415 159.097 75.045 159.097 74.575V65.05ZM170.498 76.15C169.848 76.15 169.263 75.98 168.743 75.64C168.233 75.3 167.828 74.88 167.528 74.38V79.195H166.508V68.185H167.423V69.7C167.733 69.21 168.148 68.815 168.668 68.515C169.188 68.205 169.743 68.05 170.333 68.05C170.873 68.05 171.368 68.165 171.818 68.395C172.268 68.615 172.658 68.915 172.988 69.295C173.318 69.675 173.573 70.11 173.753 70.6C173.943 71.08 174.038 71.58 174.038 72.1C174.038 72.83 173.888 73.505 173.588 74.125C173.298 74.735 172.888 75.225 172.358 75.595C171.828 75.965 171.208 76.15 170.498 76.15ZM170.213 75.25C170.643 75.25 171.028 75.165 171.368 74.995C171.708 74.815 171.998 74.575 172.238 74.275C172.488 73.975 172.678 73.64 172.808 73.27C172.938 72.89 173.003 72.5 173.003 72.1C173.003 71.68 172.928 71.28 172.778 70.9C172.638 70.52 172.433 70.185 172.163 69.895C171.893 69.605 171.583 69.375 171.233 69.205C170.883 69.035 170.503 68.95 170.093 68.95C169.833 68.95 169.563 69 169.283 69.1C169.003 69.2 168.733 69.345 168.473 69.535C168.223 69.715 168.013 69.92 167.843 70.15C167.673 70.38 167.568 70.625 167.528 70.885V73.285C167.688 73.655 167.903 73.99 168.173 74.29C168.443 74.58 168.753 74.815 169.103 74.995C169.463 75.165 169.833 75.25 170.213 75.25ZM175.136 73.75C175.136 73.26 175.276 72.84 175.556 72.49C175.836 72.13 176.221 71.855 176.711 71.665C177.211 71.465 177.786 71.365 178.436 71.365C178.816 71.365 179.211 71.395 179.621 71.455C180.031 71.515 180.396 71.605 180.716 71.725V71.065C180.716 70.405 180.521 69.88 180.131 69.49C179.741 69.1 179.201 68.905 178.511 68.905C178.091 68.905 177.676 68.985 177.266 69.145C176.866 69.295 176.446 69.52 176.006 69.82L175.616 69.1C176.126 68.75 176.626 68.49 177.116 68.32C177.606 68.14 178.106 68.05 178.616 68.05C179.576 68.05 180.336 68.325 180.896 68.875C181.456 69.425 181.736 70.185 181.736 71.155V74.77C181.736 74.91 181.766 75.015 181.826 75.085C181.886 75.145 181.981 75.18 182.111 75.19V76C182.001 76.01 181.906 76.02 181.826 76.03C181.746 76.04 181.686 76.04 181.646 76.03C181.396 76.02 181.206 75.94 181.076 75.79C180.946 75.64 180.876 75.48 180.866 75.31L180.851 74.74C180.501 75.19 180.046 75.54 179.486 75.79C178.926 76.03 178.356 76.15 177.776 76.15C177.276 76.15 176.821 76.045 176.411 75.835C176.011 75.615 175.696 75.325 175.466 74.965C175.246 74.595 175.136 74.19 175.136 73.75ZM180.371 74.35C180.481 74.21 180.566 74.075 180.626 73.945C180.686 73.815 180.716 73.7 180.716 73.6V72.46C180.376 72.33 180.021 72.23 179.651 72.16C179.291 72.09 178.926 72.055 178.556 72.055C177.826 72.055 177.236 72.2 176.786 72.49C176.336 72.78 176.111 73.175 176.111 73.675C176.111 73.965 176.186 74.24 176.336 74.5C176.486 74.75 176.706 74.96 176.996 75.13C177.286 75.29 177.626 75.37 178.016 75.37C178.506 75.37 178.961 75.275 179.381 75.085C179.811 74.895 180.141 74.65 180.371 74.35ZM187.839 69.085C187.159 69.105 186.559 69.295 186.039 69.655C185.529 70.015 185.169 70.51 184.959 71.14V76H183.939V68.185H184.899V70.06C185.169 69.51 185.524 69.065 185.964 68.725C186.414 68.385 186.889 68.195 187.389 68.155C187.489 68.145 187.574 68.14 187.644 68.14C187.724 68.14 187.789 68.145 187.839 68.155V69.085ZM188.539 73.75C188.539 73.26 188.679 72.84 188.959 72.49C189.239 72.13 189.624 71.855 190.114 71.665C190.614 71.465 191.189 71.365 191.839 71.365C192.219 71.365 192.614 71.395 193.024 71.455C193.434 71.515 193.799 71.605 194.119 71.725V71.065C194.119 70.405 193.924 69.88 193.534 69.49C193.144 69.1 192.604 68.905 191.914 68.905C191.494 68.905 191.079 68.985 190.669 69.145C190.269 69.295 189.849 69.52 189.409 69.82L189.019 69.1C189.529 68.75 190.029 68.49 190.519 68.32C191.009 68.14 191.509 68.05 192.019 68.05C192.979 68.05 193.739 68.325 194.299 68.875C194.859 69.425 195.139 70.185 195.139 71.155V74.77C195.139 74.91 195.169 75.015 195.229 75.085C195.289 75.145 195.384 75.18 195.514 75.19V76C195.404 76.01 195.309 76.02 195.229 76.03C195.149 76.04 195.089 76.04 195.049 76.03C194.799 76.02 194.609 75.94 194.479 75.79C194.349 75.64 194.279 75.48 194.269 75.31L194.254 74.74C193.904 75.19 193.449 75.54 192.889 75.79C192.329 76.03 191.759 76.15 191.179 76.15C190.679 76.15 190.224 76.045 189.814 75.835C189.414 75.615 189.099 75.325 188.869 74.965C188.649 74.595 188.539 74.19 188.539 73.75ZM193.774 74.35C193.884 74.21 193.969 74.075 194.029 73.945C194.089 73.815 194.119 73.7 194.119 73.6V72.46C193.779 72.33 193.424 72.23 193.054 72.16C192.694 72.09 192.329 72.055 191.959 72.055C191.229 72.055 190.639 72.2 190.189 72.49C189.739 72.78 189.514 73.175 189.514 73.675C189.514 73.965 189.589 74.24 189.739 74.5C189.889 74.75 190.109 74.96 190.399 75.13C190.689 75.29 191.029 75.37 191.419 75.37C191.909 75.37 192.364 75.275 192.784 75.085C193.214 74.895 193.544 74.65 193.774 74.35ZM203.731 76.15C203.091 76.15 202.496 76.045 201.946 75.835C201.396 75.625 200.921 75.305 200.521 74.875L200.941 74.155C201.381 74.565 201.821 74.865 202.261 75.055C202.711 75.235 203.186 75.325 203.686 75.325C204.296 75.325 204.791 75.205 205.171 74.965C205.551 74.715 205.741 74.36 205.741 73.9C205.741 73.59 205.646 73.355 205.456 73.195C205.276 73.025 205.011 72.89 204.661 72.79C204.321 72.68 203.911 72.565 203.431 72.445C202.891 72.295 202.436 72.14 202.066 71.98C201.706 71.81 201.431 71.6 201.241 71.35C201.061 71.09 200.971 70.755 200.971 70.345C200.971 69.835 201.096 69.415 201.346 69.085C201.606 68.745 201.956 68.49 202.396 68.32C202.846 68.14 203.346 68.05 203.896 68.05C204.496 68.05 205.026 68.145 205.486 68.335C205.946 68.525 206.321 68.79 206.611 69.13L206.116 69.82C205.836 69.5 205.501 69.265 205.111 69.115C204.731 68.955 204.306 68.875 203.836 68.875C203.516 68.875 203.211 68.92 202.921 69.01C202.631 69.09 202.391 69.23 202.201 69.43C202.021 69.62 201.931 69.885 201.931 70.225C201.931 70.505 202.001 70.725 202.141 70.885C202.281 71.035 202.491 71.165 202.771 71.275C203.051 71.375 203.396 71.485 203.806 71.605C204.396 71.765 204.911 71.93 205.351 72.1C205.791 72.26 206.131 72.47 206.371 72.73C206.611 72.99 206.731 73.355 206.731 73.825C206.731 74.555 206.456 75.125 205.906 75.535C205.356 75.945 204.631 76.15 203.731 76.15ZM208.342 72.775V68.185H209.362V72.595C209.362 73.485 209.512 74.15 209.812 74.59C210.122 75.03 210.577 75.25 211.177 75.25C211.577 75.25 211.962 75.165 212.332 74.995C212.712 74.815 213.047 74.565 213.337 74.245C213.627 73.915 213.847 73.535 213.997 73.105V68.185H215.017V74.77C215.017 74.91 215.047 75.015 215.107 75.085C215.167 75.145 215.257 75.18 215.377 75.19V76C215.257 76.01 215.162 76.015 215.092 76.015C215.022 76.025 214.957 76.03 214.897 76.03C214.697 76.01 214.522 75.93 214.372 75.79C214.232 75.65 214.157 75.48 214.147 75.28L214.117 74.23C213.777 74.83 213.312 75.3 212.722 75.64C212.142 75.98 211.512 76.15 210.832 76.15C210.012 76.15 209.392 75.865 208.972 75.295C208.552 74.725 208.342 73.885 208.342 72.775ZM216.693 73.75C216.693 73.26 216.833 72.84 217.113 72.49C217.393 72.13 217.778 71.855 218.268 71.665C218.768 71.465 219.343 71.365 219.993 71.365C220.373 71.365 220.768 71.395 221.178 71.455C221.588 71.515 221.953 71.605 222.273 71.725V71.065C222.273 70.405 222.078 69.88 221.688 69.49C221.298 69.1 220.758 68.905 220.068 68.905C219.648 68.905 219.233 68.985 218.823 69.145C218.423 69.295 218.003 69.52 217.563 69.82L217.173 69.1C217.683 68.75 218.183 68.49 218.673 68.32C219.163 68.14 219.663 68.05 220.173 68.05C221.133 68.05 221.893 68.325 222.453 68.875C223.013 69.425 223.293 70.185 223.293 71.155V74.77C223.293 74.91 223.323 75.015 223.383 75.085C223.443 75.145 223.538 75.18 223.668 75.19V76C223.558 76.01 223.463 76.02 223.383 76.03C223.303 76.04 223.243 76.04 223.203 76.03C222.953 76.02 222.763 75.94 222.633 75.79C222.503 75.64 222.433 75.48 222.423 75.31L222.408 74.74C222.058 75.19 221.603 75.54 221.043 75.79C220.483 76.03 219.913 76.15 219.333 76.15C218.833 76.15 218.378 76.045 217.968 75.835C217.568 75.615 217.253 75.325 217.023 74.965C216.803 74.595 216.693 74.19 216.693 73.75ZM221.928 74.35C222.038 74.21 222.123 74.075 222.183 73.945C222.243 73.815 222.273 73.7 222.273 73.6V72.46C221.933 72.33 221.578 72.23 221.208 72.16C220.848 72.09 220.483 72.055 220.113 72.055C219.383 72.055 218.793 72.2 218.343 72.49C217.893 72.78 217.668 73.175 217.668 73.675C217.668 73.965 217.743 74.24 217.893 74.5C218.043 74.75 218.263 74.96 218.553 75.13C218.843 75.29 219.183 75.37 219.573 75.37C220.063 75.37 220.518 75.275 220.938 75.085C221.368 74.895 221.698 74.65 221.928 74.35ZM228.062 76.15C227.422 76.15 226.827 76.045 226.277 75.835C225.727 75.625 225.252 75.305 224.852 74.875L225.272 74.155C225.712 74.565 226.152 74.865 226.592 75.055C227.042 75.235 227.517 75.325 228.017 75.325C228.627 75.325 229.122 75.205 229.502 74.965C229.882 74.715 230.072 74.36 230.072 73.9C230.072 73.59 229.977 73.355 229.787 73.195C229.607 73.025 229.342 72.89 228.992 72.79C228.652 72.68 228.242 72.565 227.762 72.445C227.222 72.295 226.767 72.14 226.397 71.98C226.037 71.81 225.762 71.6 225.572 71.35C225.392 71.09 225.302 70.755 225.302 70.345C225.302 69.835 225.427 69.415 225.677 69.085C225.937 68.745 226.287 68.49 226.727 68.32C227.177 68.14 227.677 68.05 228.227 68.05C228.827 68.05 229.357 68.145 229.817 68.335C230.277 68.525 230.652 68.79 230.942 69.13L230.447 69.82C230.167 69.5 229.832 69.265 229.442 69.115C229.062 68.955 228.637 68.875 228.167 68.875C227.847 68.875 227.542 68.92 227.252 69.01C226.962 69.09 226.722 69.23 226.532 69.43C226.352 69.62 226.262 69.885 226.262 70.225C226.262 70.505 226.332 70.725 226.472 70.885C226.612 71.035 226.822 71.165 227.102 71.275C227.382 71.375 227.727 71.485 228.137 71.605C228.727 71.765 229.242 71.93 229.682 72.1C230.122 72.26 230.462 72.47 230.702 72.73C230.942 72.99 231.062 73.355 231.062 73.825C231.062 74.555 230.787 75.125 230.237 75.535C229.687 75.945 228.962 76.15 228.062 76.15ZM238.486 76L235.321 68.185H236.386L239.056 74.98L241.741 68.185H242.746L239.581 76H238.486ZM244.159 76V68.185H245.179V76H244.159ZM244.159 66.55V65.05H245.179V66.55H244.159ZM246.796 73.75C246.796 73.26 246.936 72.84 247.216 72.49C247.496 72.13 247.881 71.855 248.371 71.665C248.871 71.465 249.446 71.365 250.096 71.365C250.476 71.365 250.871 71.395 251.281 71.455C251.691 71.515 252.056 71.605 252.376 71.725V71.065C252.376 70.405 252.181 69.88 251.791 69.49C251.401 69.1 250.861 68.905 250.171 68.905C249.751 68.905 249.336 68.985 248.926 69.145C248.526 69.295 248.106 69.52 247.666 69.82L247.276 69.1C247.786 68.75 248.286 68.49 248.776 68.32C249.266 68.14 249.766 68.05 250.276 68.05C251.236 68.05 251.996 68.325 252.556 68.875C253.116 69.425 253.396 70.185 253.396 71.155V74.77C253.396 74.91 253.426 75.015 253.486 75.085C253.546 75.145 253.641 75.18 253.771 75.19V76C253.661 76.01 253.566 76.02 253.486 76.03C253.406 76.04 253.346 76.04 253.306 76.03C253.056 76.02 252.866 75.94 252.736 75.79C252.606 75.64 252.536 75.48 252.526 75.31L252.511 74.74C252.161 75.19 251.706 75.54 251.146 75.79C250.586 76.03 250.016 76.15 249.436 76.15C248.936 76.15 248.481 76.045 248.071 75.835C247.671 75.615 247.356 75.325 247.126 74.965C246.906 74.595 246.796 74.19 246.796 73.75ZM252.031 74.35C252.141 74.21 252.226 74.075 252.286 73.945C252.346 73.815 252.376 73.7 252.376 73.6V72.46C252.036 72.33 251.681 72.23 251.311 72.16C250.951 72.09 250.586 72.055 250.216 72.055C249.486 72.055 248.896 72.2 248.446 72.49C247.996 72.78 247.771 73.175 247.771 73.675C247.771 73.965 247.846 74.24 247.996 74.5C248.146 74.75 248.366 74.96 248.656 75.13C248.946 75.29 249.286 75.37 249.676 75.37C250.166 75.37 250.621 75.275 251.041 75.085C251.471 74.895 251.801 74.65 252.031 74.35ZM258.735 76.105C258.205 76.105 257.715 75.995 257.265 75.775C256.815 75.555 256.425 75.26 256.095 74.89C255.775 74.51 255.525 74.08 255.345 73.6C255.165 73.12 255.075 72.625 255.075 72.115C255.075 71.565 255.16 71.05 255.33 70.57C255.51 70.08 255.76 69.645 256.08 69.265C256.41 68.885 256.795 68.59 257.235 68.38C257.675 68.16 258.165 68.05 258.705 68.05C259.375 68.05 259.955 68.22 260.445 68.56C260.945 68.9 261.365 69.32 261.705 69.82V68.185H262.62V76.03C262.62 76.75 262.445 77.355 262.095 77.845C261.755 78.345 261.29 78.72 260.7 78.97C260.12 79.22 259.485 79.345 258.795 79.345C257.905 79.345 257.185 79.185 256.635 78.865C256.085 78.545 255.635 78.115 255.285 77.575L255.915 77.08C256.225 77.57 256.635 77.935 257.145 78.175C257.665 78.415 258.215 78.535 258.795 78.535C259.305 78.535 259.77 78.44 260.19 78.25C260.62 78.07 260.96 77.795 261.21 77.425C261.47 77.055 261.6 76.59 261.6 76.03V74.485C261.3 74.975 260.89 75.37 260.37 75.67C259.85 75.96 259.305 76.105 258.735 76.105ZM259.02 75.25C259.33 75.25 259.625 75.195 259.905 75.085C260.195 74.975 260.46 74.83 260.7 74.65C260.94 74.46 261.14 74.25 261.3 74.02C261.46 73.79 261.56 73.555 261.6 73.315V70.9C261.45 70.52 261.235 70.185 260.955 69.895C260.675 69.595 260.355 69.365 259.995 69.205C259.645 69.035 259.28 68.95 258.9 68.95C258.46 68.95 258.065 69.045 257.715 69.235C257.375 69.415 257.085 69.66 256.845 69.97C256.615 70.27 256.435 70.61 256.305 70.99C256.175 71.37 256.11 71.75 256.11 72.13C256.11 72.55 256.185 72.95 256.335 73.33C256.485 73.7 256.69 74.035 256.95 74.335C257.22 74.625 257.53 74.85 257.88 75.01C258.24 75.17 258.62 75.25 259.02 75.25ZM268.247 76.15C267.687 76.15 267.167 76.045 266.687 75.835C266.207 75.615 265.792 75.32 265.442 74.95C265.092 74.57 264.817 74.135 264.617 73.645C264.427 73.155 264.332 72.63 264.332 72.07C264.332 71.34 264.497 70.67 264.827 70.06C265.167 69.45 265.632 68.965 266.222 68.605C266.812 68.235 267.482 68.05 268.232 68.05C269.002 68.05 269.672 68.235 270.242 68.605C270.822 68.975 271.277 69.465 271.607 70.075C271.937 70.675 272.102 71.335 272.102 72.055C272.102 72.135 272.102 72.215 272.102 72.295C272.102 72.365 272.097 72.42 272.087 72.46H265.397C265.447 73.02 265.602 73.52 265.862 73.96C266.132 74.39 266.477 74.735 266.897 74.995C267.327 75.245 267.792 75.37 268.292 75.37C268.802 75.37 269.282 75.24 269.732 74.98C270.192 74.72 270.512 74.38 270.692 73.96L271.577 74.2C271.417 74.57 271.172 74.905 270.842 75.205C270.512 75.505 270.122 75.74 269.672 75.91C269.232 76.07 268.757 76.15 268.247 76.15ZM265.367 71.725H271.142C271.102 71.155 270.947 70.655 270.677 70.225C270.417 69.795 270.072 69.46 269.642 69.22C269.222 68.97 268.757 68.845 268.247 68.845C267.737 68.845 267.272 68.97 266.852 69.22C266.432 69.46 266.087 69.8 265.817 70.24C265.557 70.67 265.407 71.165 265.367 71.725ZM280.246 76H279.226V71.635C279.226 70.715 279.091 70.045 278.821 69.625C278.551 69.195 278.126 68.98 277.546 68.98C277.146 68.98 276.751 69.08 276.361 69.28C275.971 69.47 275.626 69.735 275.326 70.075C275.036 70.405 274.826 70.785 274.696 71.215V76H273.676V68.185H274.606V69.955C274.816 69.575 275.091 69.245 275.431 68.965C275.771 68.675 276.156 68.45 276.586 68.29C277.016 68.13 277.461 68.05 277.921 68.05C278.351 68.05 278.716 68.13 279.016 68.29C279.316 68.45 279.556 68.68 279.736 68.98C279.916 69.27 280.046 69.625 280.126 70.045C280.206 70.455 280.246 70.915 280.246 71.425V76ZM284.986 76.15C284.346 76.15 283.751 76.045 283.201 75.835C282.651 75.625 282.176 75.305 281.776 74.875L282.196 74.155C282.636 74.565 283.076 74.865 283.516 75.055C283.966 75.235 284.441 75.325 284.941 75.325C285.551 75.325 286.046 75.205 286.426 74.965C286.806 74.715 286.996 74.36 286.996 73.9C286.996 73.59 286.901 73.355 286.711 73.195C286.531 73.025 286.266 72.89 285.916 72.79C285.576 72.68 285.166 72.565 284.686 72.445C284.146 72.295 283.691 72.14 283.321 71.98C282.961 71.81 282.686 71.6 282.496 71.35C282.316 71.09 282.226 70.755 282.226 70.345C282.226 69.835 282.351 69.415 282.601 69.085C282.861 68.745 283.211 68.49 283.651 68.32C284.101 68.14 284.601 68.05 285.151 68.05C285.751 68.05 286.281 68.145 286.741 68.335C287.201 68.525 287.576 68.79 287.866 69.13L287.371 69.82C287.091 69.5 286.756 69.265 286.366 69.115C285.986 68.955 285.561 68.875 285.091 68.875C284.771 68.875 284.466 68.92 284.176 69.01C283.886 69.09 283.646 69.23 283.456 69.43C283.276 69.62 283.186 69.885 283.186 70.225C283.186 70.505 283.256 70.725 283.396 70.885C283.536 71.035 283.746 71.165 284.026 71.275C284.306 71.375 284.651 71.485 285.061 71.605C285.651 71.765 286.166 71.93 286.606 72.1C287.046 72.26 287.386 72.47 287.626 72.73C287.866 72.99 287.986 73.355 287.986 73.825C287.986 74.555 287.711 75.125 287.161 75.535C286.611 75.945 285.886 76.15 284.986 76.15Z" fill="#0E1835"/>
</svg>
